  0
SECTION
  2
ENTITIES
  0
3DFACE
  8
0
 10
100.0
 20
39.0
 30
240.0
 11
160.0
 21
39.0
 31
340.0
 12
220.0
 22
39.0
 32
240.0
 13
220.0
 23
39.0
 33
240.0
  0
3DFACE
  8
0
 10
300.0
 20
39.0
 30
60.0
 11
240.0
 21
39.0
 31
-40.0
 12
360.0
 22
39.0
 32
-40.0
 13
360.0
 23
39.0
 33
-40.0
  0
3DFACE
  8
0
 10
60.0
 20
39.0
 30
-40.0
 11
0.0
 21
39.0
 31
60.0
 12
-60.0
 22
39.0
 32
-40.0
 13
-60.0
 23
39.0
 33
-40.0
  0
3DFACE
  8
0
 10
60.0
 20
39.0
 30
-40.0
 11
0.0
 21
39.0
 31
60.0
 12
160.0
 22
-21.0
 32
100.0
 13
160.0
 23
-21.0
 33
100.0
  0
3DFACE
  8
0
 10
160.0
 20
-21.0
 30
100.0
 11
240.0
 21
39.0
 31
-40.0
 12
300.0
 22
39.0
 32
60.0
 13
300.0
 23
39.0
 33
60.0
  0
3DFACE
  8
0
 10
220.0
 20
39.0
 30
240.0
 11
100.0
 21
39.0
 31
240.0
 12
160.0
 22
-21.0
 32
100.0
 13
160.0
 23
-21.0
 33
100.0
  0
3DFACE
  8
0
 10
160.0
 20
-21.0
 30
100.0
 11
220.0
 21
39.0
 31
240.0
 12
220.0
 22
-41.0
 32
120.0
 13
220.0
 23
-41.0
 33
120.0
  0
3DFACE
  8
0
 10
160.0
 20
-21.0
 30
100.0
 11
220.0
 21
-41.0
 31
120.0
 12
300.0
 22
39.0
 32
60.0
 13
300.0
 23
39.0
 33
60.0
  0
3DFACE
  8
0
 10
240.0
 20
39.0
 30
-40.0
 11
160.0
 21
-41.0
 31
20.0
 12
160.0
 22
-21.0
 32
100.0
 13
160.0
 23
-21.0
 33
100.0
  0
3DFACE
  8
0
 10
60.0
 20
39.0
 30
-40.0
 11
160.0
 21
-41.0
 31
20.0
 12
160.0
 22
-21.0
 32
100.0
 13
160.0
 23
-21.0
 33
100.0
  0
3DFACE
  8
0
 10
160.0
 20
-21.0
 30
100.0
 11
0.0
 21
39.0
 31
60.0
 12
100.0
 22
-41.0
 32
120.0
 13
100.0
 23
-41.0
 33
120.0
  0
3DFACE
  8
0
 10
100.0
 20
-41.0
 30
120.0
 11
100.0
 21
39.0
 31
240.0
 12
160.0
 22
-21.0
 32
100.0
 13
160.0
 23
-21.0
 33
100.0
  0
3DFACE
  8
0
 10
160.0
 20
-101.0
 30
180.0
 11
160.0
 21
39.0
 31
340.0
 12
220.0
 22
39.0
 32
240.0
 13
220.0
 23
39.0
 33
240.0
  0
3DFACE
  8
0
 10
160.0
 20
-101.0
 30
180.0
 11
160.0
 21
39.0
 31
340.0
 12
100.0
 22
39.0
 32
240.0
 13
100.0
 23
39.0
 33
240.0
  0
3DFACE
  8
0
 10
240.0
 20
-101.0
 30
40.0
 11
300.0
 21
39.0
 31
60.0
 12
360.0
 22
39.0
 32
-40.0
 13
360.0
 23
39.0
 33
-40.0
  0
3DFACE
  8
0
 10
240.0
 20
39.0
 30
-40.0
 11
360.0
 21
39.0
 31
-40.0
 12
240.0
 22
-101.0
 32
40.0
 13
240.0
 23
-101.0
 33
40.0
  0
3DFACE
  8
0
 10
-60.0
 20
39.0
 30
-40.0
 11
60.0
 21
39.0
 31
-40.0
 12
80.0
 22
-101.0
 32
40.0
 13
80.0
 23
-101.0
 33
40.0
  0
3DFACE
  8
0
 10
80.0
 20
-101.0
 30
40.0
 11
0.0
 21
39.0
 31
60.0
 12
-60.0
 22
39.0
 32
-40.0
 13
-60.0
 23
39.0
 33
-40.0
  0
3DFACE
  8
0
 10
80.0
 20
-101.0
 30
40.0
 11
0.0
 21
39.0
 31
60.0
 12
100.0
 22
-41.0
 32
120.0
 13
100.0
 23
-41.0
 33
120.0
  0
3DFACE
  8
0
 10
100.0
 20
-41.0
 30
120.0
 11
160.0
 21
-101.0
 31
180.0
 12
100.0
 22
39.0
 32
240.0
 13
100.0
 23
39.0
 33
240.0
  0
3DFACE
  8
0
 10
160.0
 20
-101.0
 30
180.0
 11
220.0
 21
-41.0
 31
120.0
 12
220.0
 22
39.0
 32
240.0
 13
220.0
 23
39.0
 33
240.0
  0
3DFACE
  8
0
 10
300.0
 20
39.0
 30
60.0
 11
220.0
 21
-41.0
 31
120.0
 12
240.0
 22
-101.0
 32
40.0
 13
240.0
 23
-101.0
 33
40.0
  0
3DFACE
  8
0
 10
240.0
 20
39.0
 30
-40.0
 11
240.0
 21
-101.0
 31
40.0
 12
160.0
 22
-41.0
 32
20.0
 13
160.0
 23
-41.0
 33
20.0
  0
3DFACE
  8
0
 10
160.0
 20
-41.0
 30
20.0
 11
80.0
 21
-101.0
 31
40.0
 12
60.0
 22
39.0
 32
-40.0
 13
60.0
 23
39.0
 33
-40.0
  0
3DFACE
  8
0
 10
100.0
 20
-41.0
 30
120.0
 11
160.0
 21
-41.0
 31
20.0
 12
80.0
 22
-101.0
 32
40.0
 13
80.0
 23
-101.0
 33
40.0
  0
3DFACE
  8
0
 10
100.0
 20
-41.0
 30
120.0
 11
160.0
 21
-101.0
 31
180.0
 12
220.0
 22
-41.0
 32
120.0
 13
220.0
 23
-41.0
 33
120.0
  0
3DFACE
  8
0
 10
240.0
 20
-101.0
 30
40.0
 11
220.0
 21
-41.0
 31
120.0
 12
160.0
 22
-41.0
 32
20.0
 13
160.0
 23
-41.0
 33
20.0
  0
3DFACE
  8
0
 10
160.0
 20
-101.0
 30
180.0
 11
240.0
 21
-101.0
 31
40.0
 12
80.0
 22
-101.0
 32
40.0
 13
80.0
 23
-101.0
 33
40.0
  0
3DFACE
  8
0
 10
240.0
 20
-101.0
 30
40.0
 11
220.0
 21
-41.0
 31
120.0
 12
160.0
 22
-101.0
 32
180.0
 13
160.0
 23
-101.0
 33
180.0
  0
3DFACE
  8
0
 10
100.0
 20
-41.0
 30
120.0
 11
160.0
 21
-101.0
 31
180.0
 12
80.0
 22
-101.0
 32
40.0
 13
80.0
 23
-101.0
 33
40.0
  0
3DFACE
  8
0
 10
160.0
 20
-41.0
 30
20.0
 11
80.0
 21
-101.0
 31
40.0
 12
240.0
 22
-101.0
 32
40.0
 13
240.0
 23
-101.0
 33
40.0
  0
ENDSEC
  0
EOF
