  0
SECTION
  2
ENTITIES
  0
3DFACE
  8
0
 10
7.010583
 20
297.797150
 30
-18.539070
 11
7.010583
 21
194.977676
 31
71.427948
 12
211.137405
 22
217.469437
 32
26.444468
 13
211.137405
 23
217.469437
 33
26.444468
  0
3DFACE
  8
0
 10
211.137405
 20
217.469437
 30
26.444468
 11
309.798706
 21
21.469885
 31
-18.539070
 12
173.714142
 22
21.469885
 32
71.427948
 13
173.714142
 23
21.469885
 33
71.427948
  0
3DFACE
  8
0
 10
309.798706
 20
21.469885
 30
-18.539070
 11
173.714142
 21
21.469885
 31
71.427948
 12
204.333176
 22
-190.595306
 32
26.444468
 13
204.333176
 23
-190.595306
 33
26.444468
  0
3DFACE
  8
0
 10
204.333176
 20
-190.595306
 30
26.444468
 11
7.010583
 21
-152.037964
 31
71.427948
 12
-3.195812
 22
-277.349182
 32
-18.539070
 13
-3.195812
 23
-277.349182
 33
-18.539070
  0
3DFACE
  8
0
 10
-3.195812
 20
-277.349182
 30
-18.539070
 11
-200.518463
 21
-187.382141
 31
26.444468
 12
7.010583
 22
-152.037964
 32
71.427948
 13
7.010583
 23
-152.037964
 33
71.427948
  0
3DFACE
  8
0
 10
7.010583
 20
-152.037964
 30
71.427948
 11
-163.095200
 21
21.469885
 31
71.427948
 12
-200.518463
 22
-187.382141
 32
26.444468
 13
-200.518463
 23
-187.382141
 33
26.444468
  0
3DFACE
  8
0
 10
-200.518463
 20
-187.382141
 30
26.444468
 11
-302.581909
 21
24.682987
 31
-18.539070
 12
-163.095200
 22
21.469885
 32
71.427948
 13
-163.095200
 23
21.469885
 33
71.427948
  0
3DFACE
  8
0
 10
-302.581909
 20
24.682987
 30
-18.539070
 11
-163.095200
 21
21.469885
 31
71.427948
 12
-190.312119
 22
227.108749
 32
26.444468
 13
-190.312119
 23
227.108749
 33
26.444468
  0
3DFACE
  8
0
 10
-190.312119
 20
227.108749
 30
26.444468
 11
7.010583
 21
297.797150
 31
-18.539070
 12
7.010583
 22
194.977676
 32
71.427948
 13
7.010583
 23
194.977676
 33
71.427948
  0
3DFACE
  8
0
 10
7.010583
 20
194.977676
 30
71.427948
 11
-190.312119
 21
227.108749
 31
26.444468
 12
-163.095200
 22
21.469885
 32
71.427948
 13
-163.095200
 23
21.469885
 33
71.427948
  0
3DFACE
  8
0
 10
-163.095200
 20
21.469885
 30
71.427948
 11
7.010583
 21
194.977676
 31
71.427948
 12
7.010583
 22
-152.037964
 32
71.427948
 13
7.010583
 23
-152.037964
 33
71.427948
  0
3DFACE
  8
0
 10
204.333176
 20
-190.595306
 30
26.444468
 11
7.010583
 21
-152.037964
 31
71.427948
 12
173.714142
 22
21.469885
 32
71.427948
 13
173.714142
 23
21.469885
 33
71.427948
  0
3DFACE
  8
0
 10
173.714142
 20
21.469885
 30
71.427948
 11
7.010583
 21
194.977676
 31
71.427948
 12
211.137405
 22
217.469437
 32
26.444468
 13
211.137405
 23
217.469437
 33
26.444468
  0
3DFACE
  8
0
 10
173.714142
 20
21.469885
 30
71.427948
 11
7.010583
 21
194.977676
 31
71.427948
 12
7.010583
 22
-152.037964
 32
71.427948
 13
7.010583
 23
-152.037964
 33
71.427948
  0
3DFACE
  8
0
 10
79.688057
 20
3664.811523
 30
-18.539072
 11
7.010583
 21
297.797150
 31
-18.539070
 12
3380.199463
 22
3122.698975
 32
-18.539072
 13
3380.199463
 23
3122.698975
 33
-18.539072
  0
3DFACE
  8
0
 10
7.010583
 20
297.797150
 30
-18.539070
 11
3380.199463
 21
3122.698975
 31
-18.539072
 12
211.137405
 22
217.469437
 32
26.444468
 13
211.137405
 23
217.469437
 33
26.444468
  0
3DFACE
  8
0
 10
211.137405
 20
217.469437
 30
26.444468
 11
3380.199463
 21
3122.698975
 31
-18.539072
 12
4169.452637
 22
208.841400
 32
-18.539072
 13
4169.452637
 23
208.841400
 33
-18.539072
  0
3DFACE
  8
0
 10
4169.452637
 20
208.841400
 30
-18.539072
 11
211.137405
 21
217.469437
 31
26.444468
 12
309.798706
 22
21.469885
 32
-18.539070
 13
309.798706
 23
21.469885
 33
-18.539070
  0
3DFACE
  8
0
 10
309.798706
 20
21.469885
 30
-18.539070
 11
4169.452637
 21
208.841400
 31
-18.539072
 12
204.333176
 22
-190.595306
 32
26.444468
 13
204.333176
 23
-190.595306
 33
26.444468
  0
3DFACE
  8
0
 10
204.333176
 20
-190.595306
 30
26.444468
 11
4169.452637
 21
208.841400
 31
-18.539072
 12
3164.948730
 22
-3043.837158
 32
-18.539072
 13
3164.948730
 23
-3043.837158
 33
-18.539072
  0
3DFACE
  8
0
 10
3164.948730
 20
-3043.837158
 30
-18.539072
 11
204.333176
 21
-190.595306
 31
26.444468
 12
-3.195812
 22
-277.349182
 32
-18.539070
 13
-3.195812
 23
-277.349182
 33
-18.539070
  0
3DFACE
  8
0
 10
-3.195812
 20
-277.349182
 30
-18.539070
 11
3164.948730
 21
-3043.837158
 31
-18.539072
 12
43.812656
 22
-3721.479004
 32
-18.539072
 13
43.812656
 23
-3721.479004
 33
-18.539072
  0
3DFACE
  8
0
 10
43.812656
 20
-3721.479004
 30
-18.539072
 11
-3.195812
 21
-277.349182
 31
-18.539070
 12
-3149.074463
 22
-3145.483643
 32
-18.539072
 13
-3149.074463
 23
-3145.483643
 33
-18.539072
  0
3DFACE
  8
0
 10
-3.195812
 20
-277.349182
 30
-18.539070
 11
-3149.074463
 21
-3145.483643
 31
-18.539072
 12
-200.518463
 22
-187.382141
 32
26.444468
 13
-200.518463
 23
-187.382141
 33
26.444468
  0
3DFACE
  8
0
 10
-200.518463
 20
-187.382141
 30
26.444468
 11
-3149.074463
 21
-3145.483643
 31
-18.539072
 12
-4189.453613
 22
242.723694
 32
-18.539072
 13
-4189.453613
 23
242.723694
 33
-18.539072
  0
3DFACE
  8
0
 10
-4189.453613
 20
242.723694
 30
-18.539072
 11
-200.518463
 21
-187.382141
 31
26.444468
 12
-302.581909
 22
24.682987
 32
-18.539070
 13
-302.581909
 23
24.682987
 33
-18.539070
  0
3DFACE
  8
0
 10
-302.581909
 20
24.682987
 30
-18.539070
 11
-4189.453613
 21
242.723694
 31
-18.539072
 12
-190.312119
 22
227.108749
 32
26.444468
 13
-190.312119
 23
227.108749
 33
26.444468
  0
3DFACE
  8
0
 10
-190.312119
 20
227.108749
 30
26.444468
 11
-3041.449219
 21
3054.935059
 31
-18.539072
 12
-4189.453613
 22
242.723694
 32
-18.539072
 13
-4189.453613
 23
242.723694
 33
-18.539072
  0
3DFACE
  8
0
 10
-190.312119
 20
227.108749
 30
26.444468
 11
-3041.449219
 21
3054.935059
 31
-18.539072
 12
7.010583
 22
297.797150
 32
-18.539070
 13
7.010583
 23
297.797150
 33
-18.539070
  0
3DFACE
  8
0
 10
7.010583
 20
297.797150
 30
-18.539070
 11
-3041.449219
 21
3054.935059
 31
-18.539072
 12
79.688057
 22
3664.811523
 32
-18.539072
 13
79.688057
 23
3664.811523
 33
-18.539072
  0
ENDSEC
  0
EOF
