  0
SECTION
  2
ENTITIES
  0
3DFACE
  8
0
 10
-380.000031
 20
-139.777771
 30
217.222198
 11
-312.000031
 21
-139.777771
 31
202.111084
 12
-356.000031
 22
-139.777771
 32
16.999969
 13
-356.000031
 23
-139.777771
 33
16.999969
  0
3DFACE
  8
0
 10
-312.000031
 20
-139.777771
 30
202.111084
 11
-356.000031
 21
-139.777771
 31
16.999969
 12
-216.000031
 22
-139.777771
 32
122.777771
 13
-216.000031
 23
-139.777771
 33
122.777771
  0
3DFACE
  8
0
 10
-216.000031
 20
-139.777771
 30
122.777771
 11
-356.000031
 21
-139.777771
 31
16.999969
 12
-184.000031
 22
-139.777771
 32
24.555542
 13
-184.000031
 23
-139.777771
 33
24.555542
  0
3DFACE
  8
0
 10
-184.000031
 20
-139.777771
 30
24.555542
 11
-184.000031
 21
-139.777771
 31
-35.888916
 12
-356.000031
 22
-139.777771
 32
16.999969
 13
-356.000031
 23
-139.777771
 33
16.999969
  0
3DFACE
  8
0
 10
-356.000031
 20
-139.777771
 30
16.999969
 11
-256.000031
 21
-139.777771
 31
-175.666687
 12
-184.000031
 22
-139.777771
 32
-35.888916
 13
-184.000031
 23
-139.777771
 33
-35.888916
  0
3DFACE
  8
0
 10
-184.000031
 20
-139.777771
 30
-35.888916
 11
-120.000031
 21
-139.777771
 31
-96.333344
 12
-256.000031
 22
-139.777771
 32
-175.666687
 13
-256.000031
 23
-139.777771
 33
-175.666687
  0
3DFACE
  8
0
 10
-120.000031
 20
-139.777771
 30
-96.333344
 11
-256.000031
 21
-139.777771
 31
-175.666687
 12
-60.000031
 22
-139.777771
 32
-262.555542
 13
-60.000031
 23
-139.777771
 33
-262.555542
  0
3DFACE
  8
0
 10
-60.000031
 20
-139.777771
 30
-262.555542
 11
-120.000031
 21
-139.777771
 31
-96.333344
 12
-40.000031
 22
-139.777771
 32
-88.777802
 13
-40.000031
 23
-139.777771
 33
-88.777802
  0
3DFACE
  8
0
 10
-40.000031
 20
-139.777771
 30
-88.777802
 11
15.999969
 21
-139.777771
 31
-96.333344
 12
-60.000031
 22
-139.777771
 32
-262.555542
 13
-60.000031
 23
-139.777771
 33
-262.555542
  0
3DFACE
  8
0
 10
-60.000031
 20
-139.777771
 30
-262.555542
 11
47.999969
 21
-139.777771
 31
-141.666687
 12
15.999969
 22
-139.777771
 32
-96.333344
 13
15.999969
 23
-139.777771
 33
-96.333344
  0
3DFACE
  8
0
 10
47.999969
 20
-139.777771
 30
-141.666687
 11
111.999969
 21
-139.777771
 31
-164.333344
 12
-60.000031
 22
-139.777771
 32
-262.555542
 13
-60.000031
 23
-139.777771
 33
-262.555542
  0
3DFACE
  8
0
 10
-60.000031
 20
-139.777771
 30
-262.555542
 11
156.0
 21
-139.777771
 31
-262.555542
 12
111.999969
 22
-139.777771
 32
-164.333344
 13
111.999969
 23
-139.777771
 33
-164.333344
  0
3DFACE
  8
0
 10
111.999969
 20
-139.777771
 30
-164.333344
 11
171.999969
 21
-139.777771
 31
-164.333344
 12
156.0
 22
-139.777771
 32
-262.555542
 13
156.0
 23
-139.777771
 33
-262.555542
  0
3DFACE
  8
0
 10
171.999969
 20
-139.777771
 30
-164.333344
 11
156.0
 21
-139.777771
 31
-262.555542
 12
267.999969
 22
-139.777771
 32
-224.777771
 13
267.999969
 23
-139.777771
 33
-224.777771
  0
3DFACE
  8
0
 10
267.999969
 20
-139.777771
 30
-224.777771
 11
255.999969
 21
-139.777771
 31
-360.777771
 12
156.0
 22
-139.777771
 32
-262.555542
 13
156.0
 23
-139.777771
 33
-262.555542
  0
3DFACE
  8
0
 10
255.999969
 20
-139.777771
 30
-360.777771
 11
156.0
 21
-139.777771
 31
-262.555542
 12
71.999969
 22
-139.777771
 32
-402.333313
 13
71.999969
 23
-139.777771
 33
-402.333313
  0
3DFACE
  8
0
 10
-60.000031
 20
-139.777771
 30
-262.555542
 11
156.0
 21
-139.777771
 31
-262.555542
 12
71.999969
 22
-139.777771
 32
-402.333313
 13
71.999969
 23
-139.777771
 33
-402.333313
  0
3DFACE
  8
0
 10
71.999969
 20
-139.777771
 30
-402.333313
 11
-60.000031
 21
-139.777771
 31
-262.555542
 12
-192.000031
 22
-139.777771
 32
-391.0
 13
-192.000031
 23
-139.777771
 33
-391.0
  0
3DFACE
  8
0
 10
-60.000031
 20
-139.777771
 30
-262.555542
 11
-192.000031
 21
-139.777771
 31
-391.0
 12
-256.000031
 22
-139.777771
 32
-175.666687
 13
-256.000031
 23
-139.777771
 33
-175.666687
  0
3DFACE
  8
0
 10
-256.000031
 20
-139.777771
 30
-175.666687
 11
-192.000031
 21
-139.777771
 31
-391.0
 12
-392.000031
 22
-139.777771
 32
-296.555542
 13
-392.000031
 23
-139.777771
 33
-296.555542
  0
3DFACE
  8
0
 10
-392.000031
 20
-139.777771
 30
-296.555542
 11
-256.000031
 21
-139.777771
 31
-175.666687
 12
-468.000031
 22
-139.777771
 32
-111.444458
 13
-468.000031
 23
-139.777771
 33
-111.444458
  0
3DFACE
  8
0
 10
-256.000031
 20
-139.777771
 30
-175.666687
 11
-468.000031
 21
-139.777771
 31
-111.444458
 12
-356.000031
 22
-139.777771
 32
16.999969
 13
-356.000031
 23
-139.777771
 33
16.999969
  0
3DFACE
  8
0
 10
-356.000031
 20
-139.777771
 30
16.999969
 11
-484.000031
 21
-139.777771
 31
77.444427
 12
-468.000031
 22
-139.777771
 32
-111.444458
 13
-468.000031
 23
-139.777771
 33
-111.444458
  0
3DFACE
  8
0
 10
-356.000031
 20
-139.777771
 30
16.999969
 11
-484.000031
 21
-139.777771
 31
77.444427
 12
-452.0
 22
-139.777771
 32
186.999969
 13
-452.0
 23
-139.777771
 33
186.999969
  0
3DFACE
  8
0
 10
-452.0
 20
-139.777771
 30
186.999969
 11
-356.000031
 21
-139.777771
 31
16.999969
 12
-380.000031
 22
-139.777771
 32
217.222198
 13
-380.000031
 23
-139.777771
 33
217.222198
  0
3DFACE
  8
0
 10
-40.000031
 20
-139.777771
 30
-88.777802
 11
15.999969
 21
-139.777771
 31
-20.777802
 12
15.999969
 22
-139.777771
 32
-96.333344
 13
15.999969
 23
-139.777771
 33
-96.333344
  0
3DFACE
  8
0
 10
-40.000031
 20
-139.777771
 30
-88.777802
 11
15.999969
 21
-139.777771
 31
-20.777802
 12
-52.000031
 22
-139.777771
 32
50.055542
 13
-52.000031
 23
-139.777771
 33
50.055542
  0
3DFACE
  8
0
 10
-52.000031
 20
-139.777771
 30
50.055542
 11
51.999969
 21
-139.777771
 31
81.222198
 12
15.999969
 22
-139.777771
 32
-20.777802
 13
15.999969
 23
-139.777771
 33
-20.777802
  0
3DFACE
  8
0
 10
-52.000031
 20
-139.777771
 30
50.055542
 11
-60.000031
 21
-139.777771
 31
108.611115
 12
51.999969
 22
-139.777771
 32
81.222198
 13
51.999969
 23
-139.777771
 33
81.222198
  0
3DFACE
  8
0
 10
51.999969
 20
-139.777771
 30
81.222198
 11
107.999969
 21
-139.777771
 31
130.333313
 12
-8.000031
 22
-139.777771
 32
213.444427
 13
-8.000031
 23
-139.777771
 33
213.444427
  0
3DFACE
  8
0
 10
-8.000031
 20
-139.777771
 30
213.444427
 11
-60.000031
 21
-139.777771
 31
108.611115
 12
51.999969
 22
-139.777771
 32
81.222198
 13
51.999969
 23
-139.777771
 33
81.222198
  0
3DFACE
  8
0
 10
-8.000031
 20
-139.777771
 30
213.444427
 11
-60.000031
 21
-139.777771
 31
108.611115
 12
-98.000031
 22
-139.777771
 32
163.388885
 13
-98.000031
 23
-139.777771
 33
163.388885
  0
3DFACE
  8
0
 10
-98.000031
 20
-139.777771
 30
163.388885
 11
-140.000031
 21
-139.777771
 31
228.555542
 12
-8.000031
 22
-139.777771
 32
213.444427
 13
-8.000031
 23
-139.777771
 33
213.444427
  0
3DFACE
  8
0
 10
-8.000031
 20
-139.777771
 30
213.444427
 11
-40.000031
 21
-139.777771
 31
311.666626
 12
-140.000031
 22
-139.777771
 32
228.555542
 13
-140.000031
 23
-139.777771
 33
228.555542
  0
3DFACE
  8
0
 10
-140.000031
 20
-139.777771
 30
228.555542
 11
-152.000031
 21
-139.777771
 31
292.777740
 12
-40.000031
 22
-139.777771
 32
311.666626
 13
-40.000031
 23
-139.777771
 33
311.666626
  0
3DFACE
  8
0
 10
-40.000031
 20
-139.777771
 30
311.666626
 11
-104.000031
 21
-139.777771
 31
387.222198
 12
-152.000031
 22
-139.777771
 32
292.777740
 13
-152.000031
 23
-139.777771
 33
292.777740
  0
3DFACE
  8
0
 10
-40.000031
 20
-139.777771
 30
311.666626
 11
-104.000031
 21
-139.777771
 31
387.222198
 12
-4.000031
 22
-139.777771
 32
417.444397
 13
-4.000031
 23
-139.777771
 33
417.444397
  0
3DFACE
  8
0
 10
-40.000031
 20
-139.777771
 30
311.666626
 11
-4.000031
 21
-139.777771
 31
417.444397
 12
111.999969
 22
-139.777771
 32
288.999969
 13
111.999969
 23
-139.777771
 33
288.999969
  0
3DFACE
  8
0
 10
111.999969
 20
-139.777771
 30
288.999969
 11
159.999969
 21
-139.777771
 31
398.555511
 12
-4.000031
 22
-139.777771
 32
417.444397
 13
-4.000031
 23
-139.777771
 33
417.444397
  0
3DFACE
  8
0
 10
111.999969
 20
-139.777771
 30
288.999969
 11
255.999969
 21
-139.777771
 31
292.777740
 12
159.999969
 22
-139.777771
 32
398.555511
 13
159.999969
 23
-139.777771
 33
398.555511
  0
3DFACE
  8
0
 10
111.999969
 20
-139.777771
 30
288.999969
 11
255.999969
 21
-139.777771
 31
292.777740
 12
211.999969
 22
-139.777771
 32
183.222198
 13
211.999969
 23
-139.777771
 33
183.222198
  0
3DFACE
  8
0
 10
211.999969
 20
-139.777771
 30
183.222198
 11
107.999969
 21
-139.777771
 31
130.333313
 12
111.999969
 22
-139.777771
 32
288.999969
 13
111.999969
 23
-139.777771
 33
288.999969
  0
3DFACE
  8
0
 10
111.999969
 20
-139.777771
 30
288.999969
 11
-8.000031
 21
-139.777771
 31
213.444427
 12
107.999969
 22
-139.777771
 32
130.333313
 13
107.999969
 23
-139.777771
 33
130.333313
  0
3DFACE
  8
0
 10
-104.000031
 20
-139.777771
 30
387.222198
 11
-76.000031
 21
-45.333344
 31
364.555511
 12
-4.000031
 22
-139.777771
 32
417.444397
 13
-4.000031
 23
-139.777771
 33
417.444397
  0
3DFACE
  8
0
 10
-76.000031
 20
-45.333344
 30
364.555511
 11
-4.000031
 21
-139.777771
 31
417.444397
 12
111.999939
 22
7.555542
 32
375.888855
 13
111.999939
 23
7.555542
 33
375.888855
  0
3DFACE
  8
0
 10
111.999939
 20
7.555542
 30
375.888855
 11
-4.000031
 21
-139.777771
 31
417.444397
 12
159.999969
 22
-139.777771
 32
398.555511
 13
159.999969
 23
-139.777771
 33
398.555511
  0
3DFACE
  8
0
 10
159.999969
 20
-139.777771
 30
398.555511
 11
111.999939
 21
7.555542
 31
375.888855
 12
255.999969
 22
-139.777771
 32
292.777740
 13
255.999969
 23
-139.777771
 33
292.777740
  0
3DFACE
  8
0
 10
111.999939
 20
7.555542
 30
375.888855
 11
255.999969
 21
-139.777771
 31
292.777740
 12
167.999969
 22
-30.222229
 32
262.555511
 13
167.999969
 23
-30.222229
 33
262.555511
  0
3DFACE
  8
0
 10
167.999969
 20
-30.222229
 30
262.555511
 11
255.999969
 21
-139.777771
 31
292.777740
 12
211.999969
 22
-139.777771
 32
183.222198
 13
211.999969
 23
-139.777771
 33
183.222198
  0
3DFACE
  8
0
 10
211.999969
 20
-139.777771
 30
183.222198
 11
167.999969
 21
-30.222229
 31
262.555511
 12
107.999969
 22
-139.777771
 32
130.333313
 13
107.999969
 23
-139.777771
 33
130.333313
  0
3DFACE
  8
0
 10
167.999969
 20
-30.222229
 30
262.555511
 11
107.999969
 21
-139.777771
 31
130.333313
 12
51.999969
 22
22.666656
 32
164.333313
 13
51.999969
 23
22.666656
 33
164.333313
  0
3DFACE
  8
0
 10
51.999969
 20
22.666656
 30
164.333313
 11
107.999969
 21
-139.777771
 31
130.333313
 12
51.999969
 22
-139.777771
 32
81.222198
 13
51.999969
 23
-139.777771
 33
81.222198
  0
3DFACE
  8
0
 10
51.999969
 20
-139.777771
 30
81.222198
 11
-8.000031
 21
0.0
 31
149.222198
 12
51.999969
 22
22.666656
 32
164.333313
 13
51.999969
 23
22.666656
 33
164.333313
  0
3DFACE
  8
0
 10
-8.000031
 20
0.0
 30
149.222198
 11
-60.000031
 21
-139.777771
 31
108.611115
 12
-60.000031
 22
-26.444458
 32
254.999969
 13
-60.000031
 23
-26.444458
 33
254.999969
  0
3DFACE
  8
0
 10
-60.000031
 20
-26.444458
 30
254.999969
 11
-98.000031
 21
-139.777771
 31
163.388885
 12
-60.000031
 22
-139.777771
 32
108.611115
 13
-60.000031
 23
-139.777771
 33
108.611115
  0
3DFACE
  8
0
 10
-98.000031
 20
-139.777771
 30
163.388885
 11
-140.000031
 21
-139.777771
 31
228.555542
 12
-60.000031
 22
-26.444458
 32
254.999969
 13
-60.000031
 23
-26.444458
 33
254.999969
  0
3DFACE
  8
0
 10
-60.000031
 20
-26.444458
 30
254.999969
 11
-140.000031
 21
-139.777771
 31
228.555542
 12
-152.000031
 22
-139.777771
 32
292.777740
 13
-152.000031
 23
-139.777771
 33
292.777740
  0
3DFACE
  8
0
 10
-152.000031
 20
-139.777771
 30
292.777740
 11
-60.000031
 21
-26.444458
 31
254.999969
 12
-76.000031
 22
-45.333344
 32
364.555511
 13
-76.000031
 23
-45.333344
 33
364.555511
  0
3DFACE
  8
0
 10
-104.000031
 20
-139.777771
 30
387.222198
 11
-76.000031
 21
-45.333344
 31
364.555511
 12
-152.000031
 22
-139.777771
 32
292.777740
 13
-152.000031
 23
-139.777771
 33
292.777740
  0
3DFACE
  8
0
 10
-76.000031
 20
-45.333344
 30
364.555511
 11
111.999939
 21
7.555542
 31
375.888855
 12
35.999969
 22
37.777771
 32
330.555511
 13
35.999969
 23
37.777771
 33
330.555511
  0
3DFACE
  8
0
 10
35.999969
 20
37.777771
 30
330.555511
 11
-76.000031
 21
-45.333344
 31
364.555511
 12
-60.000031
 22
-26.444458
 32
254.999969
 13
-60.000031
 23
-26.444458
 33
254.999969
  0
3DFACE
  8
0
 10
-60.000031
 20
-26.444458
 30
254.999969
 11
-8.000031
 21
0.0
 31
149.222198
 12
11.999969
 22
22.666656
 32
270.111084
 13
11.999969
 23
22.666656
 33
270.111084
  0
3DFACE
  8
0
 10
11.999969
 20
22.666656
 30
270.111084
 11
35.999969
 21
37.777771
 31
330.555511
 12
-60.000031
 22
-26.444458
 32
254.999969
 13
-60.000031
 23
-26.444458
 33
254.999969
  0
3DFACE
  8
0
 10
11.999969
 20
22.666656
 30
270.111084
 11
35.999969
 21
37.777771
 31
330.555511
 12
95.999969
 22
41.555542
 32
262.555511
 13
95.999969
 23
41.555542
 33
262.555511
  0
3DFACE
  8
0
 10
35.999969
 20
37.777771
 30
330.555511
 11
95.999969
 21
41.555542
 31
262.555511
 12
111.999939
 22
7.555542
 32
375.888855
 13
111.999939
 23
7.555542
 33
375.888855
  0
3DFACE
  8
0
 10
111.999939
 20
7.555542
 30
375.888855
 11
95.999969
 21
41.555542
 31
262.555511
 12
167.999969
 22
-30.222229
 32
262.555511
 13
167.999969
 23
-30.222229
 33
262.555511
  0
3DFACE
  8
0
 10
51.999969
 20
22.666656
 30
164.333313
 11
11.999969
 21
22.666656
 31
270.111084
 12
95.999969
 22
41.555542
 32
262.555511
 13
95.999969
 23
41.555542
 33
262.555511
  0
3DFACE
  8
0
 10
-8.000031
 20
0.0
 30
149.222198
 11
11.999969
 21
22.666656
 31
270.111084
 12
51.999969
 22
22.666656
 32
164.333313
 13
51.999969
 23
22.666656
 33
164.333313
  0
3DFACE
  8
0
 10
167.999969
 20
-30.222229
 30
262.555511
 11
51.999969
 21
22.666656
 31
164.333313
 12
95.999969
 22
41.555542
 32
262.555511
 13
95.999969
 23
41.555542
 33
262.555511
  0
3DFACE
  8
0
 10
-40.000031
 20
-139.777771
 30
311.666626
 11
-8.000031
 21
-423.111115
 31
251.222198
 12
111.999969
 22
-139.777771
 32
288.999969
 13
111.999969
 23
-139.777771
 33
288.999969
  0
3DFACE
  8
0
 10
-8.000031
 20
-423.111115
 30
251.222198
 11
111.999969
 21
-139.777771
 31
288.999969
 12
-8.000031
 22
-139.777771
 32
213.444427
 13
-8.000031
 23
-139.777771
 33
213.444427
  0
3DFACE
  8
0
 10
-8.000031
 20
-423.111115
 30
251.222198
 11
-8.000031
 21
-139.777771
 31
213.444427
 12
-40.000031
 22
-139.777771
 32
311.666626
 13
-40.000031
 23
-139.777771
 33
311.666626
  0
3DFACE
  8
0
 10
255.999969
 20
-279.555542
 30
270.111084
 11
255.999969
 21
-139.777771
 31
292.777740
 12
211.999969
 22
-139.777771
 32
183.222198
 13
211.999969
 23
-139.777771
 33
183.222198
  0
3DFACE
  8
0
 10
211.999969
 20
-139.777771
 30
183.222198
 11
207.999969
 21
-279.555542
 31
100.111084
 12
107.999969
 22
-139.777771
 32
130.333313
 13
107.999969
 23
-139.777771
 33
130.333313
  0
3DFACE
  8
0
 10
51.999969
 20
-139.777771
 30
81.222198
 11
107.999969
 21
-139.777771
 31
130.333313
 12
207.999969
 22
-279.555542
 32
100.111084
 13
207.999969
 23
-279.555542
 33
100.111084
  0
3DFACE
  8
0
 10
207.999969
 20
-279.555542
 30
100.111084
 11
127.999969
 21
-279.555542
 31
-1.888916
 12
51.999969
 22
-139.777771
 32
81.222198
 13
51.999969
 23
-139.777771
 33
81.222198
  0
3DFACE
  8
0
 10
51.999969
 20
-139.777771
 30
81.222198
 11
15.999969
 21
-139.777771
 31
-20.777802
 12
127.999969
 22
-279.555542
 32
-1.888916
 13
127.999969
 23
-279.555542
 33
-1.888916
  0
3DFACE
  8
0
 10
127.999969
 20
-279.555542
 30
-1.888916
 11
15.999969
 21
-139.777771
 31
-96.333344
 12
15.999969
 22
-139.777771
 32
-20.777802
 13
15.999969
 23
-139.777771
 33
-20.777802
  0
3DFACE
  8
0
 10
47.999969
 20
-139.777771
 30
-141.666687
 11
15.999969
 21
-139.777771
 31
-96.333344
 12
127.999969
 22
-279.555542
 32
-1.888916
 13
127.999969
 23
-279.555542
 33
-1.888916
  0
3DFACE
  8
0
 10
47.999969
 20
-139.777771
 30
-141.666687
 11
127.999969
 21
-279.555542
 31
-1.888916
 12
167.999969
 22
-279.555542
 32
-126.555573
 13
167.999969
 23
-279.555542
 33
-126.555573
  0
3DFACE
  8
0
 10
167.999969
 20
-279.555542
 30
-126.555573
 11
111.999969
 21
-139.777771
 31
-164.333344
 12
47.999969
 22
-139.777771
 32
-141.666687
 13
47.999969
 23
-139.777771
 33
-141.666687
  0
3DFACE
  8
0
 10
111.999969
 20
-139.777771
 30
-164.333344
 11
171.999969
 21
-139.777771
 31
-164.333344
 12
167.999969
 22
-279.555542
 32
-126.555573
 13
167.999969
 23
-279.555542
 33
-126.555573
  0
3DFACE
  8
0
 10
171.999969
 20
-139.777771
 30
-164.333344
 11
167.999969
 21
-279.555542
 31
-126.555573
 12
263.999969
 22
-279.555542
 32
-205.888885
 13
263.999969
 23
-279.555542
 33
-205.888885
  0
3DFACE
  8
0
 10
263.999969
 20
-279.555542
 30
-205.888885
 11
267.999969
 21
-139.777771
 31
-224.777771
 12
171.999969
 22
-139.777771
 32
-164.333344
 13
171.999969
 23
-139.777771
 33
-164.333344
  0
3DFACE
  8
0
 10
263.999969
 20
-279.555542
 30
-205.888885
 11
195.999969
 21
-279.555542
 31
-17.0
 12
167.999969
 22
-279.555542
 32
-126.555573
 13
167.999969
 23
-279.555542
 33
-126.555573
  0
3DFACE
  8
0
 10
195.999969
 20
-279.555542
 30
-17.0
 11
167.999969
 21
-279.555542
 31
-126.555573
 12
127.999969
 22
-279.555542
 32
-1.888916
 13
127.999969
 23
-279.555542
 33
-1.888916
  0
3DFACE
  8
0
 10
195.999969
 20
-279.555542
 30
-17.0
 11
127.999969
 21
-279.555542
 31
-1.888916
 12
207.999969
 22
-279.555542
 32
100.111084
 13
207.999969
 23
-279.555542
 33
100.111084
  0
3DFACE
  8
0
 10
211.999969
 20
-139.777771
 30
183.222198
 11
207.999969
 21
-279.555542
 31
100.111084
 12
255.999969
 22
-279.555542
 32
270.111084
 13
255.999969
 23
-279.555542
 33
270.111084
  0
3DFACE
  8
0
 10
255.999969
 20
-279.555542
 30
270.111084
 11
207.999969
 21
-279.555542
 31
100.111084
 12
263.999969
 22
-279.555542
 32
-205.888885
 13
263.999969
 23
-279.555542
 33
-205.888885
  0
3DFACE
  8
0
 10
263.999969
 20
-279.555542
 30
-205.888885
 11
195.999969
 21
-279.555542
 31
-17.0
 12
207.999969
 22
-279.555542
 32
100.111084
 13
207.999969
 23
-279.555542
 33
100.111084
  0
3DFACE
  8
0
 10
-120.000031
 20
-139.777771
 30
-96.333344
 11
-40.000031
 21
-139.777771
 31
-88.777802
 12
-96.000031
 22
-321.111084
 32
-9.444458
 13
-96.000031
 23
-321.111084
 33
-9.444458
  0
3DFACE
  8
0
 10
-40.000031
 20
-139.777771
 30
-88.777802
 11
-96.000031
 21
-321.111084
 31
-9.444458
 12
-52.000031
 22
-139.777771
 32
50.055542
 13
-52.000031
 23
-139.777771
 33
50.055542
  0
3DFACE
  8
0
 10
-52.000031
 20
-139.777771
 30
50.055542
 11
-96.000031
 21
-321.111084
 31
-9.444458
 12
-128.000031
 22
-321.111084
 32
88.777771
 13
-128.000031
 23
-321.111084
 33
88.777771
  0
3DFACE
  8
0
 10
-128.000031
 20
-321.111084
 30
88.777771
 11
-52.000031
 21
-139.777771
 31
50.055542
 12
-60.000031
 22
-139.777771
 32
108.611115
 13
-60.000031
 23
-139.777771
 33
108.611115
  0
3DFACE
  8
0
 10
-60.000031
 20
-139.777771
 30
108.611115
 11
-128.000031
 21
-321.111084
 31
88.777771
 12
-98.000031
 22
-139.777771
 32
163.388885
 13
-98.000031
 23
-139.777771
 33
163.388885
  0
3DFACE
  8
0
 10
-128.000031
 20
-321.111084
 30
88.777771
 11
-98.000031
 21
-139.777771
 31
163.388885
 12
-140.000031
 22
-139.777771
 32
228.555542
 13
-140.000031
 23
-139.777771
 33
228.555542
  0
3DFACE
  8
0
 10
-140.000031
 20
-139.777771
 30
228.555542
 11
-208.000031
 21
-321.111084
 31
217.222198
 12
-128.000031
 22
-321.111084
 32
88.777771
 13
-128.000031
 23
-321.111084
 33
88.777771
  0
3DFACE
  8
0
 10
-140.000031
 20
-139.777771
 30
228.555542
 11
-208.000031
 21
-321.111084
 31
217.222198
 12
-152.000031
 22
-139.777771
 32
292.777740
 13
-152.000031
 23
-139.777771
 33
292.777740
  0
3DFACE
  8
0
 10
-152.000031
 20
-139.777771
 30
292.777740
 11
-208.000031
 21
-321.111084
 31
217.222198
 12
-232.000031
 22
-321.111084
 32
360.777740
 13
-232.000031
 23
-321.111084
 33
360.777740
  0
3DFACE
  8
0
 10
-232.000031
 20
-321.111084
 30
360.777740
 11
-152.000031
 21
-139.777771
 31
292.777740
 12
-104.000031
 22
-139.777771
 32
387.222198
 13
-104.000031
 23
-139.777771
 33
387.222198
  0
3DFACE
  8
0
 10
-4.000031
 20
-139.777771
 30
417.444397
 11
-104.000031
 21
-139.777771
 31
387.222198
 12
-484.000031
 22
-321.111084
 32
413.666626
 13
-484.000031
 23
-321.111084
 33
413.666626
  0
3DFACE
  8
0
 10
-484.000031
 20
-321.111084
 30
413.666626
 11
-104.000031
 21
-139.777771
 31
387.222198
 12
-232.000031
 22
-321.111084
 32
360.777740
 13
-232.000031
 23
-321.111084
 33
360.777740
  0
3DFACE
  8
0
 10
-232.000031
 20
-321.111084
 30
360.777740
 11
-484.000031
 21
-321.111084
 31
413.666626
 12
-344.000031
 22
-321.111084
 32
307.888855
 13
-344.000031
 23
-321.111084
 33
307.888855
  0
3DFACE
  8
0
 10
-484.000031
 20
-321.111084
 30
413.666626
 11
-344.000031
 21
-321.111084
 31
307.888855
 12
-448.000031
 22
-321.111084
 32
300.333313
 13
-448.000031
 23
-321.111084
 33
300.333313
  0
3DFACE
  8
0
 10
-484.000031
 20
-321.111084
 30
413.666626
 11
-448.000031
 21
-321.111084
 31
300.333313
 12
-484.000031
 22
-139.777771
 32
77.444427
 13
-484.000031
 23
-139.777771
 33
77.444427
  0
3DFACE
  8
0
 10
-484.000031
 20
-139.777771
 30
77.444427
 11
-452.0
 21
-139.777771
 31
186.999969
 12
-448.000031
 22
-321.111084
 32
300.333313
 13
-448.000031
 23
-321.111084
 33
300.333313
  0
3DFACE
  8
0
 10
-452.0
 20
-139.777771
 30
186.999969
 11
-448.000031
 21
-321.111084
 31
300.333313
 12
-380.000031
 22
-139.777771
 32
217.222198
 13
-380.000031
 23
-139.777771
 33
217.222198
  0
3DFACE
  8
0
 10
-380.000031
 20
-139.777771
 30
217.222198
 11
-448.000031
 21
-321.111084
 31
300.333313
 12
-344.000031
 22
-321.111084
 32
307.888855
 13
-344.000031
 23
-321.111084
 33
307.888855
  0
3DFACE
  8
0
 10
-344.000031
 20
-321.111084
 30
307.888855
 11
-380.000031
 21
-139.777771
 31
217.222198
 12
-312.000031
 22
-139.777771
 32
202.111084
 13
-312.000031
 23
-139.777771
 33
202.111084
  0
3DFACE
  8
0
 10
-312.000031
 20
-139.777771
 30
202.111084
 11
-344.000031
 21
-321.111084
 31
307.888855
 12
-232.000031
 22
-321.111084
 32
360.777740
 13
-232.000031
 23
-321.111084
 33
360.777740
  0
3DFACE
  8
0
 10
-232.000031
 20
-321.111084
 30
360.777740
 11
-312.000031
 21
-139.777771
 31
202.111084
 12
-208.000031
 22
-321.111084
 32
217.222198
 13
-208.000031
 23
-321.111084
 33
217.222198
  0
3DFACE
  8
0
 10
-312.000031
 20
-139.777771
 30
202.111084
 11
-208.000031
 21
-321.111084
 31
217.222198
 12
-216.000031
 22
-139.777771
 32
122.777771
 13
-216.000031
 23
-139.777771
 33
122.777771
  0
3DFACE
  8
0
 10
-216.000031
 20
-139.777771
 30
122.777771
 11
-208.000031
 21
-321.111084
 31
217.222198
 12
-128.000031
 22
-321.111084
 32
88.777771
 13
-128.000031
 23
-321.111084
 33
88.777771
  0
3DFACE
  8
0
 10
-184.000031
 20
-139.777771
 30
24.555542
 11
-216.000031
 21
-139.777771
 31
122.777771
 12
-128.000031
 22
-321.111084
 32
88.777771
 13
-128.000031
 23
-321.111084
 33
88.777771
  0
3DFACE
  8
0
 10
-96.000031
 20
-321.111084
 30
-9.444458
 11
-128.000031
 21
-321.111084
 31
88.777771
 12
-184.000031
 22
-139.777771
 32
24.555542
 13
-184.000031
 23
-139.777771
 33
24.555542
  0
3DFACE
  8
0
 10
-96.000031
 20
-321.111084
 30
-9.444458
 11
-184.000031
 21
-139.777771
 31
24.555542
 12
-184.000031
 22
-139.777771
 32
-35.888916
 13
-184.000031
 23
-139.777771
 33
-35.888916
  0
3DFACE
  8
0
 10
-184.000031
 20
-139.777771
 30
-35.888916
 11
-120.000031
 21
-139.777771
 31
-96.333344
 12
-96.000031
 22
-321.111084
 32
-9.444458
 13
-96.000031
 23
-321.111084
 33
-9.444458
  0
3DFACE
  8
0
 10
-484.000031
 20
-139.777771
 30
77.444427
 11
-468.000031
 21
-139.777771
 31
-111.444458
 12
-480.000031
 22
45.333313
 32
-183.222229
 13
-480.000031
 23
45.333313
 33
-183.222229
  0
3DFACE
  8
0
 10
-480.000031
 20
45.333313
 30
-183.222229
 11
-440.000031
 21
18.888885
 31
-311.666656
 12
-468.000031
 22
-139.777771
 32
-111.444458
 13
-468.000031
 23
-139.777771
 33
-111.444458
  0
3DFACE
  8
0
 10
-440.000031
 20
18.888885
 30
-311.666656
 11
-468.000031
 21
-139.777771
 31
-111.444458
 12
-392.000031
 22
-139.777771
 32
-296.555542
 13
-392.000031
 23
-139.777771
 33
-296.555542
  0
3DFACE
  8
0
 10
-440.000031
 20
18.888885
 30
-311.666656
 11
-392.000031
 21
-139.777771
 31
-296.555542
 12
-244.000031
 22
0.0
 32
-413.666656
 13
-244.000031
 23
0.0
 33
-413.666656
  0
3DFACE
  8
0
 10
-244.000031
 20
0.0
 30
-413.666656
 11
-392.000031
 21
-139.777771
 31
-296.555542
 12
-192.000031
 22
-139.777771
 32
-391.0
 13
-192.000031
 23
-139.777771
 33
-391.0
  0
3DFACE
  8
0
 10
-192.000031
 20
-139.777771
 30
-391.0
 11
-244.000031
 21
0.0
 31
-413.666656
 12
71.999969
 22
-139.777771
 32
-402.333313
 13
71.999969
 23
-139.777771
 33
-402.333313
  0
3DFACE
  8
0
 10
-440.000031
 20
18.888885
 30
-311.666656
 11
-244.000031
 21
0.0
 31
-413.666656
 12
-496.000031
 22
181.333313
 32
-409.888885
 13
-496.000031
 23
181.333313
 33
-409.888885
  0
3DFACE
  8
0
 10
-440.000031
 20
18.888885
 30
-311.666656
 11
-496.000031
 21
181.333313
 31
-409.888885
 12
-480.000031
 22
45.333313
 32
-183.222229
 13
-480.000031
 23
45.333313
 33
-183.222229
  0
3DFACE
  8
0
 10
-480.000031
 20
45.333313
 30
-183.222229
 11
-496.000031
 21
181.333313
 31
-409.888885
 12
-484.000031
 22
-139.777771
 32
77.444427
 13
-484.000031
 23
-139.777771
 33
77.444427
  0
ENDSEC
  0
EOF
